<svg width="487" height="64" viewBox="0 0 487 64" fill="none" xmlns="http://www.w3.org/2000/svg">
<path d="M0 62.7294V0H51.5147C54.9185 0 57.9882 0.668614 60.7235 2.00588C63.4588 3.28235 65.6168 5.0755 67.1971 7.38529C68.8382 9.69508 69.6588 12.4 69.6588 15.5C69.6588 18.2353 69.1727 20.5756 68.2 22.5206C67.2273 24.4656 65.8903 26.0462 64.1882 27.2618C62.5471 28.4773 60.7235 29.3891 58.7176 29.9971V30.3618C61.0882 30.8479 63.2156 31.7294 65.1 33.0059C66.9844 34.2214 68.4735 35.8933 69.5676 38.0206C70.6618 40.1479 71.2088 42.7315 71.2088 45.7706C71.2088 49.3567 70.3273 52.4265 68.5647 54.9794C66.8626 57.4714 64.5529 59.3862 61.6353 60.7235C58.7176 62.0609 55.4353 62.7294 51.7882 62.7294H0ZM18.5088 49.5088H45.5882C47.5332 49.5088 49.1138 48.992 50.3294 47.9588C51.545 46.8647 52.1529 45.2235 52.1529 43.0353C52.1529 41.8803 51.8794 40.8471 51.3324 39.9353C50.8462 39.0235 50.0862 38.3244 49.0529 37.8382C48.0197 37.2912 46.7735 37.0176 45.3147 37.0176H18.5088V49.5088ZM18.5088 24.8H44.0382C45.4361 24.8 46.6214 24.5567 47.5941 24.0706C48.5668 23.5235 49.3265 22.7941 49.8735 21.8824C50.4206 20.9706 50.6941 19.8765 50.6941 18.6C50.6941 16.8373 50.0862 15.4392 48.8706 14.4059C47.655 13.3118 46.1353 12.7647 44.3118 12.7647H18.5088V24.8ZM76.9588 62.7294L107.776 0H128.473L159.291 62.7294H139.141L134.4 52.7H100.847L96.1058 62.7294H76.9588ZM107.047 39.1147H128.2L122.547 26.35C122.304 25.8029 121.969 25.0126 121.544 23.9794C121.118 22.8853 120.663 21.7609 120.176 20.6059C119.69 19.3903 119.265 18.2961 118.9 17.3235C118.535 16.2902 118.231 15.5304 117.988 15.0441H117.35C116.924 16.1382 116.408 17.4147 115.8 18.8735C115.192 20.3324 114.615 21.7303 114.068 23.0676C113.581 24.405 113.125 25.4991 112.7 26.35L107.047 39.1147ZM191.897 63.8235C185.819 63.8235 180.622 63.0029 176.306 61.3618C172.051 59.7206 168.799 57.1979 166.55 53.7941C164.301 50.3294 163.177 45.8618 163.177 40.3912V39.0235H180.865V40.7559C180.865 43.9773 181.777 46.3479 183.6 47.8676C185.424 49.3265 187.977 50.0559 191.259 50.0559C194.967 50.0559 197.763 49.1441 199.647 47.3206C201.532 45.4971 202.474 42.5794 202.474 38.5676V0H220.983V37.8382C220.983 43.9168 219.797 48.8706 217.427 52.7C215.117 56.5294 211.804 59.3559 207.488 61.1794C203.173 62.942 197.976 63.8235 191.897 63.8235ZM228.949 62.7294L259.767 0H280.464L311.282 62.7294H291.132L286.39 52.7H252.837L248.096 62.7294H228.949ZM259.037 39.1147H280.19L274.537 26.35C274.294 25.8029 273.96 25.0126 273.535 23.9794C273.109 22.8853 272.653 21.7609 272.167 20.6059C271.68 19.3903 271.255 18.2961 270.89 17.3235C270.526 16.2902 270.222 15.5304 269.979 15.0441H269.34C268.915 16.1382 268.398 17.4147 267.79 18.8735C267.182 20.3324 266.605 21.7303 266.058 23.0676C265.572 24.405 265.116 25.4991 264.69 26.35L259.037 39.1147ZM318.723 62.7294L329.755 0.182352H386.741L385.556 7.02059H336.594L332.947 27.7176H378.08L376.894 34.5559H331.67L326.747 62.7294H318.723ZM389.688 62.7294L400.721 0.182352H408.744L397.712 62.7294H389.688ZM439.237 62.7294L448.993 7.29412H420.455L421.731 0.182352H486.831L485.646 7.29412H457.017L447.261 62.7294H439.237Z" fill="#FEFEFC"/>
</svg>
